<?xml version="1.0" encoding="UTF-8" standalone="no"?>
<svg
   xmlns:dc="http://purl.org/dc/elements/1.1/"
   xmlns:cc="http://creativecommons.org/ns#"
   xmlns:rdf="http://www.w3.org/1999/02/22-rdf-syntax-ns#"
   xmlns:svg="http://www.w3.org/2000/svg"
   xmlns="http://www.w3.org/2000/svg"
   viewBox="0 0 666.66669 666.66669"
   height="666.66669"
   width="666.66669"
   xml:space="preserve"
   id="svg2"
   version="1.1"><metadata
     id="metadata8"><rdf:RDF><cc:Work
         rdf:about=""><dc:format>image/svg+xml</dc:format><dc:type
           rdf:resource="http://purl.org/dc/dcmitype/StillImage" /></cc:Work></rdf:RDF></metadata><defs
     id="defs6"><clipPath
       id="clipPath18"
       clipPathUnits="userSpaceOnUse"><path
         id="path16"
         d="M 0,500 H 500 V 0 H 0 Z" /></clipPath><clipPath
       id="clipPath30"
       clipPathUnits="userSpaceOnUse"><path
         id="path28"
         d="M 0,500 H 500 V 0 H 0 Z" /></clipPath><clipPath
       id="clipPath42"
       clipPathUnits="userSpaceOnUse"><path
         id="path40"
         d="M 0,500 H 500 V 0 H 0 Z" /></clipPath><clipPath
       id="clipPath54"
       clipPathUnits="userSpaceOnUse"><path
         id="path52"
         d="m 119.954,179.906 h 19.944 v -35.499 h -19.944 z" /></clipPath><clipPath
       id="clipPath110"
       clipPathUnits="userSpaceOnUse"><path
         id="path108"
         d="m 171.461,278.752 h 36.561 v -79.173 h -36.561 z" /></clipPath><clipPath
       id="clipPath146"
       clipPathUnits="userSpaceOnUse"><path
         id="path144"
         d="M 0,500 H 500 V 0 H 0 Z" /></clipPath><clipPath
       id="clipPath258"
       clipPathUnits="userSpaceOnUse"><path
         id="path256"
         d="M 0,500 H 500 V 0 H 0 Z" /></clipPath><clipPath
       id="clipPath354"
       clipPathUnits="userSpaceOnUse"><path
         id="path352"
         d="m 277.898,328.101 h 10.543 v -13.613 h -10.543 z" /></clipPath><clipPath
       id="clipPath370"
       clipPathUnits="userSpaceOnUse"><path
         id="path368"
         d="m 273.134,315.639 h 20.31 v -19.833 h -20.31 z" /></clipPath><clipPath
       id="clipPath390"
       clipPathUnits="userSpaceOnUse"><path
         id="path388"
         d="m 249.999,287.469 h 24.373 v -17.235 h -24.373 z" /></clipPath><clipPath
       id="clipPath410"
       clipPathUnits="userSpaceOnUse"><path
         id="path408"
         d="m 250,297.231 h 64.992 V 251.09 H 250 Z" /></clipPath><clipPath
       id="clipPath430"
       clipPathUnits="userSpaceOnUse"><path
         id="path428"
         d="m 249.999,254.636 h 24.373 v -17.235 h -24.373 z" /></clipPath><clipPath
       id="clipPath450"
       clipPathUnits="userSpaceOnUse"><path
         id="path448"
         d="m 250,264.398 h 64.992 v -46.14 H 250 Z" /></clipPath><clipPath
       id="clipPath470"
       clipPathUnits="userSpaceOnUse"><path
         id="path468"
         d="m 274.372,238.219 h 28.435 v -26.615 h -28.435 z" /></clipPath><clipPath
       id="clipPath486"
       clipPathUnits="userSpaceOnUse"><path
         id="path484"
         d="M 0,500 H 500 V 0 H 0 Z" /></clipPath><clipPath
       id="clipPath534"
       clipPathUnits="userSpaceOnUse"><path
         id="path532"
         d="m 372.145,249.176 h 16.892 v -92.233 h -16.892 z" /></clipPath><clipPath
       id="clipPath554"
       clipPathUnits="userSpaceOnUse"><path
         id="path552"
         d="M 372.145,230.066 H 385.19 V 193.102 H 372.145 Z" /></clipPath><clipPath
       id="clipPath574"
       clipPathUnits="userSpaceOnUse"><path
         id="path572"
         d="M 352.591,249.176 H 387.02 V 152.584 H 352.591 Z" /></clipPath><clipPath
       id="clipPath594"
       clipPathUnits="userSpaceOnUse"><path
         id="path592"
         d="M 356.464,275.799 H 385.19 V 243.991 H 356.464 Z" /></clipPath><clipPath
       id="clipPath618"
       clipPathUnits="userSpaceOnUse"><path
         id="path616"
         d="M 0,500 H 500 V 0 H 0 Z" /></clipPath></defs><g
     transform="matrix(1.3333333,0,0,-1.3333333,0,666.66667)"
     id="g10"><g
       id="g12"><g
         clip-path="url(#clipPath18)"
         id="g14"><g
           transform="translate(125.2349,110.7568)"
           id="g20"><path
             id="path22"
             style="fill:#f5f5f5;fill-opacity:1;fill-rule:nonzero;stroke:none"
             d="m 0,0 c 68.906,-32.842 180.625,-32.843 249.531,-0.001 68.906,32.843 68.906,86.09 0,118.932 C 180.625,151.773 68.905,151.773 -0.001,118.932 -68.907,86.09 -68.907,32.842 0,0" /></g></g></g><g
       id="g24"><g
         clip-path="url(#clipPath30)"
         id="g26"><g
           transform="translate(358.2822,138.2344)"
           id="g32"><path
             id="path34"
             style="fill:#ececec;fill-opacity:1;fill-rule:nonzero;stroke:none"
             d="m 0,0 c 8.974,-4.277 23.522,-4.277 32.496,0 8.974,4.276 8.974,11.211 0,15.488 C 23.522,19.765 8.974,19.765 0,15.488 -8.974,11.211 -8.974,4.276 0,0" /></g></g></g><g
       id="g36"><g
         clip-path="url(#clipPath42)"
         id="g38"><g
           transform="translate(119.9541,144.4072)"
           id="g44"><path
             id="path46"
             style="fill:#00dfbf;fill-opacity:1;fill-rule:nonzero;stroke:none"
             d="m 0,0 8.124,4.69 c 0,0 6.702,4.926 10.021,14.072 2.511,6.92 2.165,12.184 0.364,14.823 -2.215,3.247 -7.946,2.68 -8.174,-4.166 C 9.887,15.938 5.954,6.612 0,0" /></g><g
           id="g48"><g
             id="g50" /><g
             id="g62"><g
               style="opacity:0.19999701"
               id="g60"
               clip-path="url(#clipPath54)"><g
                 id="g58"
                 transform="translate(119.9541,144.4072)"><path
                   id="path56"
                   style="fill:#000000;fill-opacity:1;fill-rule:nonzero;stroke:none"
                   d="m 0,0 8.124,4.69 c 0,0 6.702,4.926 10.021,14.072 2.511,6.92 2.165,12.184 0.364,14.823 -2.215,3.247 -7.946,2.68 -8.174,-4.166 C 9.887,15.938 5.954,6.612 0,0" /></g></g></g></g><g
           transform="translate(119.9546,143.9072)"
           id="g64"><path
             id="path66"
             style="fill:#ffffff;fill-opacity:1;fill-rule:nonzero;stroke:none"
             d="m 0,0 c -0.159,0 -0.314,0.075 -0.412,0.216 -0.157,0.226 -0.1,0.538 0.127,0.695 18.797,13.007 15.156,31.128 15.117,31.31 -0.059,0.269 0.113,0.536 0.383,0.593 0.272,0.061 0.536,-0.113 0.594,-0.382 C 15.85,32.244 19.648,13.488 0.284,0.089 0.197,0.028 0.098,0 0,0" /></g><g
           transform="translate(103.7061,135.0264)"
           id="g68"><path
             id="path70"
             style="fill:#00dfbf;fill-opacity:1;fill-rule:nonzero;stroke:none"
             d="m 0,0 c 0,0 -2.828,2.303 -2.144,5.42 0.685,3.118 2.509,5.359 -0.627,9.381 -3.136,4.022 -3.946,9.381 -0.258,12.287 2.851,2.247 7.3,-0.938 8.906,5.016 1.172,4.339 0.772,13.949 6.309,17.146 5.536,3.196 8.974,-1.616 8.124,-8.134 -0.761,-5.831 -1.831,-11.445 -1.006,-12.973 1.615,-2.989 4.391,-2.587 4.265,-8.066 -0.118,-5.1 -4.941,-9.322 -4.941,-9.322 z" /></g><g
           transform="translate(112.998,139.8916)"
           id="g72"><path
             id="path74"
             style="fill:#ffffff;fill-opacity:1;fill-rule:nonzero;stroke:none"
             d="m 0,0 c -0.25,0 -0.465,0.187 -0.496,0.44 -1.431,11.849 1.979,32.307 4.8,38.388 0.116,0.251 0.411,0.362 0.664,0.243 0.251,-0.116 0.36,-0.413 0.243,-0.663 C 2.44,32.433 -0.872,11.886 0.497,0.56 0.53,0.286 0.334,0.037 0.061,0.004 0.04,0.001 0.02,0 0,0" /></g><g
           transform="translate(112.7275,149.1162)"
           id="g76"><path
             id="path78"
             style="fill:#ffffff;fill-opacity:1;fill-rule:nonzero;stroke:none"
             d="m 0,0 c -0.074,0 -0.148,0.017 -0.219,0.051 -3.47,1.696 -5.669,7.721 -5.761,7.977 -0.094,0.26 0.041,0.546 0.301,0.64 0.26,0.093 0.546,-0.041 0.64,-0.302 C -5.018,8.308 -2.885,2.468 0.22,0.949 0.468,0.828 0.571,0.528 0.45,0.28 0.363,0.103 0.185,0 0,0" /></g><g
           transform="translate(112.6709,145.123)"
           id="g80"><path
             id="path82"
             style="fill:#ffffff;fill-opacity:1;fill-rule:nonzero;stroke:none"
             d="m 0,0 c -0.198,0 -0.386,0.119 -0.464,0.314 -0.103,0.256 0.022,0.547 0.278,0.65 5.839,2.34 9.479,9.298 9.515,9.368 0.127,0.245 0.428,0.343 0.673,0.215 0.246,-0.126 0.342,-0.428 0.216,-0.674 C 10.063,9.574 6.368,2.513 0.186,0.036 0.125,0.012 0.062,0 0,0" /></g><g
           transform="translate(316.8018,198.917)"
           id="g84"><path
             id="path86"
             style="fill:#00dfbf;fill-opacity:1;fill-rule:nonzero;stroke:none"
             d="m 0,0 c 0,0 -4.373,7.072 -4.795,14.771 -0.422,7.7 1.268,10.895 3.586,11.813 2.318,0.917 2.494,-1.908 3.691,-3.583 1.199,-1.675 3.621,-0.716 4.515,4.491 0.895,5.206 4.178,14.03 10.969,15.714 7.501,1.858 3.477,-6.94 1.595,-10.373 -1.884,-3.433 -3.352,-8.108 -2.11,-9.381 1.241,-1.273 3.166,1.079 5.013,-1.101 2.229,-2.632 -4.7,-12.095 -8.677,-14.391 z" /></g><g
           transform="translate(322.792,201.8945)"
           id="g88"><path
             id="path90"
             style="fill:#ffffff;fill-opacity:1;fill-rule:nonzero;stroke:none"
             d="m 0,0 c -0.009,0 -0.018,0 -0.026,0.001 -0.277,0.015 -0.488,0.25 -0.473,0.525 1.101,20.477 11.094,34.659 11.195,34.799 0.161,0.226 0.474,0.277 0.698,0.115 0.224,-0.16 0.276,-0.472 0.115,-0.697 C 11.41,34.604 1.584,20.646 0.499,0.474 0.485,0.207 0.265,0 0,0" /></g><g
           transform="translate(323.3633,207.7979)"
           id="g92"><path
             id="path94"
             style="fill:#ffffff;fill-opacity:1;fill-rule:nonzero;stroke:none"
             d="m 0,0 c -0.082,0 -0.165,0.021 -0.242,0.062 -2.801,1.55 -4.352,6.149 -4.416,6.344 -0.087,0.262 0.054,0.545 0.317,0.632 0.261,0.09 0.546,-0.056 0.632,-0.317 C -3.694,6.677 -2.216,2.297 0.242,0.937 0.483,0.804 0.571,0.5 0.437,0.258 0.347,0.093 0.176,0 0,0" /></g><g
           transform="translate(323.8535,210.8291)"
           id="g96"><path
             id="path98"
             style="fill:#ffffff;fill-opacity:1;fill-rule:nonzero;stroke:none"
             d="m 0,0 c -0.224,0 -0.428,0.15 -0.484,0.377 -0.069,0.269 0.093,0.54 0.361,0.607 C 7.095,2.81 9.595,6.593 9.619,6.63 9.769,6.862 10.078,6.929 10.31,6.782 10.542,6.634 10.611,6.326 10.463,6.094 10.356,5.925 7.759,1.946 0.123,0.016 0.081,0.005 0.04,0 0,0" /></g><g
           transform="translate(208.022,214.4648)"
           id="g100"><path
             id="path102"
             style="fill:#00dfbf;fill-opacity:1;fill-rule:nonzero;stroke:none"
             d="m 0,0 c 0,0 -9.589,2.338 -10.088,20.293 -0.539,19.381 2.349,41.991 -8.96,43.83 -11.309,1.839 -17.655,-12.029 -17.51,-28.143 0.127,-14.149 5.825,-44.849 36.557,-50.866 z" /></g><g
           id="g104"><g
             id="g106" /><g
             id="g118"><g
               style="opacity:0.19999701"
               id="g116"
               clip-path="url(#clipPath110)"><g
                 id="g114"
                 transform="translate(208.022,214.4648)"><path
                   id="path112"
                   style="fill:#000000;fill-opacity:1;fill-rule:nonzero;stroke:none"
                   d="m 0,0 c 0,0 -9.589,2.338 -10.088,20.293 -0.539,19.381 2.349,41.991 -8.96,43.83 -11.309,1.839 -17.655,-12.029 -17.51,-28.143 0.127,-14.149 5.825,-44.849 36.557,-50.866 z" /></g></g></g></g><g
           transform="translate(208.0215,201.4248)"
           id="g120"><path
             id="path122"
             style="fill:#ffffff;fill-opacity:1;fill-rule:nonzero;stroke:none"
             d="m 0,0 c -0.03,0 -0.06,0.003 -0.09,0.008 -6.915,1.26 -12.543,5.063 -16.728,11.306 -12.425,18.535 -8.51,53.13 -7.225,59.174 0.058,0.27 0.322,0.441 0.593,0.385 0.27,-0.058 0.443,-0.323 0.386,-0.593 -1.271,-5.976 -5.153,-40.165 7.076,-58.409 C -11.959,5.861 -6.55,2.201 0.089,0.992 0.361,0.942 0.541,0.682 0.491,0.41 0.447,0.169 0.237,0 0,0" /></g><g
           transform="translate(208.0225,155.3301)"
           id="g124"><path
             id="path126"
             style="fill:#00dfbf;fill-opacity:1;fill-rule:nonzero;stroke:none"
             d="m 0,0 c -9.915,-1.344 -26.019,-1.32 -35.295,5.996 -9.276,7.317 -7.347,13.622 -3.778,16.252 3.568,2.631 6.667,5.637 0.529,11.474 -6.139,5.837 -16.006,15.216 -19.197,29.289 -3.191,14.071 -1.619,22.865 4.659,25.798 6.094,2.844 7.698,-1.675 11.428,-10.996 3.729,-9.323 12.122,-1.331 19.298,-4.241 7.175,-2.909 6.894,-8.67 7.346,-13.622 0.452,-4.951 2.822,-6.32 6.885,-6.32 4.063,0 8.123,-2.345 8.124,-7.035 z" /></g><g
           transform="translate(208.0225,171.667)"
           id="g128"><path
             id="path130"
             style="fill:#ffffff;fill-opacity:1;fill-rule:nonzero;stroke:none"
             d="m 0,0 c -0.044,0 -0.09,0.006 -0.135,0.019 -0.429,0.12 -10.682,3.104 -25.606,16.813 -15.898,14.604 -23.404,36.499 -23.478,36.718 -0.088,0.262 0.052,0.546 0.314,0.634 0.262,0.086 0.546,-0.053 0.634,-0.314 0.073,-0.218 7.502,-21.876 23.207,-36.302 C -10.34,4.043 0.032,1.011 0.135,0.981 0.401,0.906 0.556,0.631 0.481,0.364 0.419,0.145 0.219,0 0,0" /></g><g
           transform="translate(186.4336,185.0078)"
           id="g132"><path
             id="path134"
             style="fill:#ffffff;fill-opacity:1;fill-rule:nonzero;stroke:none"
             d="m 0,0 c -0.2,0 -0.389,0.121 -0.466,0.318 -3.209,8.247 -3.936,25.876 -3.965,26.622 -0.011,0.276 0.204,0.508 0.48,0.52 0.256,-0.003 0.508,-0.204 0.519,-0.481 C -3.425,26.799 -2.682,8.771 0.466,0.682 0.566,0.424 0.438,0.134 0.181,0.034 0.122,0.011 0.061,0 0,0" /></g><g
           transform="translate(186.3496,173.1475)"
           id="g136"><path
             id="path138"
             style="fill:#ffffff;fill-opacity:1;fill-rule:nonzero;stroke:none"
             d="m 0,0 c -1.554,0 -2.629,0.122 -2.759,0.138 -0.274,0.032 -0.47,0.281 -0.437,0.555 0.032,0.274 0.279,0.477 0.555,0.437 0.093,-0.009 9.397,-1.061 13.671,3.297 0.192,0.199 0.51,0.199 0.707,0.008 0.197,-0.194 0.2,-0.511 0.007,-0.707 C 8.616,0.538 3.258,0 0,0" /></g></g></g><g
       id="g140"><g
         clip-path="url(#clipPath146)"
         id="g142"><g
           transform="translate(161.0156,341.9561)"
           id="g148"><path
             id="path150"
             style="fill:#e1e1e1;fill-opacity:1;fill-rule:nonzero;stroke:none"
             d="m 0,0 c -4.554,-3.58 -5.941,-4.361 -6.765,0.422 -0.824,4.783 1.84,12.077 6.394,15.657 4.555,3.581 6.302,3.848 7.126,-0.935 C 7.579,10.361 4.554,3.581 0,0 m 18.133,20.55 -1.074,6.235 -5.563,-3.661 c -0.558,1.065 -1.274,1.921 -2.116,2.568 l 2.662,7.201 -4.956,1.108 -3.662,-6.977 C 2.21,26.837 0.93,26.428 -0.391,25.782 l -1.585,5.259 -5.936,-4.667 0.389,-6.2 c -1.202,-1.336 -2.301,-2.799 -3.282,-4.337 l -4.905,0.242 -3.438,-7.708 4.211,-1.797 c -0.444,-1.658 -0.73,-3.303 -0.832,-4.885 l -5.346,-4.917 1.073,-6.235 5.563,3.661 c 0.558,-1.066 1.274,-1.922 2.116,-2.568 l -2.662,-7.201 4.957,-1.109 5.238,5.108 c 1.214,0.186 0.918,2.466 2.238,3.112 l 1.585,-5.259 5.936,4.667 -0.153,2.438 c 1.202,1.337 5.739,4.286 6.72,5.824 l 1.231,2.033 3.439,7.708 -1.603,2.903 -1.777,3.779 z" /></g><g
           transform="translate(168.1016,375.9575)"
           id="g152"><path
             id="path154"
             style="fill:#f5f5f5;fill-opacity:1;fill-rule:nonzero;stroke:none"
             d="m 0,0 6.485,-3.74 -3.662,-6.977 -6.485,3.739 z" /></g><g
           transform="translate(184.5596,365.001)"
           id="g156"><path
             id="path158"
             style="fill:#f5f5f5;fill-opacity:1;fill-rule:nonzero;stroke:none"
             d="m 0,0 -5.563,-3.661 -6.485,3.74 5.563,3.661 z" /></g><g
           transform="translate(183.6665,347.1675)"
           id="g160"><path
             id="path162"
             style="fill:#e1e1e1;fill-opacity:1;fill-rule:nonzero;stroke:none"
             d="m 0,0 -4.212,1.796 -6.485,3.74 4.212,-1.796 z" /></g><g
           transform="translate(145.9902,326.3848)"
           id="g164"><path
             id="path166"
             style="fill:#e1e1e1;fill-opacity:1;fill-rule:nonzero;stroke:none"
             d="M 0,0 6.485,-3.74 9.147,3.461 2.663,7.201 Z" /></g><g
           transform="translate(166.4937,324.4971)"
           id="g168"><path
             id="path170"
             style="fill:#e1e1e1;fill-opacity:1;fill-rule:nonzero;stroke:none"
             d="M 0,0 -6.485,3.74 -8.07,8.999 -1.585,5.259 Z" /></g><g
           transform="translate(167.501,338.2163)"
           id="g172"><path
             id="path174"
             style="fill:#ececec;fill-opacity:1;fill-rule:nonzero;stroke:none"
             d="m 0,0 c -4.554,-3.581 -8.914,-2.605 -9.738,2.178 -0.824,4.783 2.201,11.563 6.755,15.143 4.554,3.581 8.914,2.606 9.737,-2.177 C 7.578,10.361 4.554,3.581 0,0 m 18.132,20.55 -1.073,6.235 -5.563,-3.661 c -0.558,1.065 -1.274,1.921 -2.116,2.568 l 2.662,7.201 -4.957,1.108 -3.661,-6.977 C 2.21,26.837 0.929,26.428 -0.391,25.782 l -1.585,5.259 -5.936,-4.667 0.389,-6.2 c -1.202,-1.336 -2.301,-2.799 -3.282,-4.337 l -4.905,0.242 -3.438,-7.708 4.211,-1.797 c -0.445,-1.658 -0.73,-3.303 -0.832,-4.886 l -5.347,-4.916 1.074,-6.235 5.563,3.661 c 0.558,-1.066 1.274,-1.922 2.116,-2.569 l -2.662,-7.2 4.956,-1.109 3.662,6.978 c 1.214,0.186 2.494,0.596 3.815,1.242 l 1.585,-5.259 5.936,4.667 -0.389,6.199 c 1.202,1.337 2.301,2.799 3.282,4.338 l 4.905,-0.242 3.439,7.708 -4.212,1.797 c 0.445,1.658 0.731,3.302 0.831,4.885 z" /></g><g
           transform="translate(165.5254,369.2573)"
           id="g176"><path
             id="path178"
             style="fill:#f5f5f5;fill-opacity:1;fill-rule:nonzero;stroke:none"
             d="m 0,0 -6.485,3.74 -5.936,-4.667 6.484,-3.74 z" /></g><g
           transform="translate(153.104,368.3301)"
           id="g180"><path
             id="path182"
             style="fill:#e1e1e1;fill-opacity:1;fill-rule:nonzero;stroke:none"
             d="M 0,0 0.389,-6.2 6.874,-9.939 6.485,-3.74 Z" /></g><g
           transform="translate(156.6958,354.0532)"
           id="g184"><path
             id="path186"
             style="fill:#f5f5f5;fill-opacity:1;fill-rule:nonzero;stroke:none"
             d="m 0,0 -6.485,3.74 -4.905,0.242 6.485,-3.74 z" /></g><g
           transform="translate(145.3057,358.0352)"
           id="g188"><path
             id="path190"
             style="fill:#e1e1e1;fill-opacity:1;fill-rule:nonzero;stroke:none"
             d="m 0,0 -3.438,-7.708 6.485,-3.74 3.438,7.708 z" /></g><g
           transform="translate(151.7324,339.9048)"
           id="g192"><path
             id="path194"
             style="fill:#f5f5f5;fill-opacity:1;fill-rule:nonzero;stroke:none"
             d="m 0,0 -6.485,3.74 -5.347,-4.917 6.485,-3.74 z" /></g><g
           transform="translate(147.459,328.7534)"
           id="g196"><path
             id="path198"
             style="fill:#e1e1e1;fill-opacity:1;fill-rule:nonzero;stroke:none"
             d="m 0,0 -6.485,3.74 -1.074,6.235 6.485,-3.74 z" /></g><g
           transform="translate(174.5864,372.2178)"
           id="g200"><path
             id="path202"
             style="fill:#f5f5f5;fill-opacity:1;fill-rule:nonzero;stroke:none"
             d="M 0,0 -6.485,3.74 -1.528,2.631 4.957,-1.108 Z" /></g><g
           transform="translate(124.1621,367.5347)"
           id="g204"><path
             id="path206"
             style="fill:#e1e1e1;fill-opacity:1;fill-rule:nonzero;stroke:none"
             d="m 0,0 c -6.187,-3.572 -10.033,-1.038 -10.033,6.106 0,7.144 5.113,15.896 11.301,19.468 6.187,3.572 9.935,0.974 9.935,-6.17 C 11.203,12.259 6.187,3.572 0,0 m 25.931,23.25 v 9.313 L 18.52,29.222 c -0.447,1.72 -1.128,3.195 -2.002,4.411 l 4.669,9.415 -5.703,3.292 -5.818,-8.751 C 8.175,37.738 6.558,37.59 4.845,37.117 L 4.032,45.206 -4.032,40.55 -4.845,31.523 c -1.713,-1.505 -3.33,-3.225 -4.821,-5.095 l -5.818,2.032 -5.703,-9.877 4.669,-4.023 c -0.874,-2.226 -1.555,-4.487 -2.002,-6.723 l -7.411,-5.216 v -9.312 l 7.411,3.34 c 0.447,-1.719 1.128,-3.194 2.002,-4.41 l -4.669,-9.415 5.703,-3.293 5.818,8.752 c 1.491,-0.149 3.108,-0.002 4.821,0.471 l 0.813,-8.088 8.064,4.656 0.813,9.027 c 2.403,0.801 4.974,2.662 6.465,4.532 l 4.174,-1.47 5.703,9.877 -3.499,3.015 c 0.874,2.226 0.967,5.785 0.832,7.731 z" /></g><g
           transform="translate(146.1318,410.1353)"
           id="g208"><path
             id="path210"
             style="fill:#f5f5f5;fill-opacity:1;fill-rule:nonzero;stroke:none"
             d="m 0,0 -6.485,3.74 -5.819,-8.752 6.485,-3.739 z" /></g><g
           transform="translate(156.5781,396.3579)"
           id="g212"><path
             id="path214"
             style="fill:#f5f5f5;fill-opacity:1;fill-rule:nonzero;stroke:none"
             d="m 0,0 -6.485,3.74 -7.411,-3.341 6.485,-3.74 z" /></g><g
           transform="translate(126.6152,344.4604)"
           id="g216"><path
             id="path218"
             style="fill:#e1e1e1;fill-opacity:1;fill-rule:nonzero;stroke:none"
             d="m 0,0 -6.485,3.74 -0.813,8.089 6.486,-3.74 z" /></g><g
           transform="translate(102.9751,350.3584)"
           id="g220"><path
             id="path222"
             style="fill:#e1e1e1;fill-opacity:1;fill-rule:nonzero;stroke:none"
             d="m 0,0 6.485,-3.74 4.669,9.415 -6.485,3.74 z" /></g><g
           transform="translate(130.6475,363.7949)"
           id="g224"><path
             id="path226"
             style="fill:#ececec;fill-opacity:1;fill-rule:nonzero;stroke:none"
             d="m 0,0 c -6.187,-3.572 -11.203,-0.676 -11.203,6.468 0,7.144 5.016,15.831 11.203,19.404 6.187,3.571 11.203,0.676 11.203,-6.468 C 11.203,12.259 6.187,3.572 0,0 m 25.931,23.25 v 9.313 L 18.52,29.222 c -0.447,1.72 -1.128,3.195 -2.002,4.411 l 4.669,9.415 -5.703,3.292 -5.819,-8.751 C 8.175,37.738 6.558,37.59 4.845,37.117 L 4.032,45.206 -4.032,40.55 -4.845,31.523 c -1.713,-1.505 -3.33,-3.225 -4.821,-5.095 l -5.819,2.032 -5.702,-9.877 4.669,-4.023 c -0.874,-2.226 -1.555,-4.487 -2.002,-6.723 l -7.411,-5.216 v -9.312 l 7.411,3.34 c 0.447,-1.719 1.128,-3.194 2.002,-4.411 l -4.669,-9.415 5.702,-3.292 5.819,8.751 c 1.491,-0.148 3.108,-10e-4 4.821,0.472 l 0.813,-8.088 8.064,4.656 0.813,9.027 c 1.713,1.504 3.33,3.224 4.82,5.094 l 5.819,-2.032 5.703,9.877 -4.669,4.024 c 0.874,2.226 1.555,4.486 2.002,6.722 z" /></g><g
           transform="translate(114.4966,393.9629)"
           id="g228"><path
             id="path230"
             style="fill:#f0f0f0;fill-opacity:1;fill-rule:nonzero;stroke:none"
             d="m 0,0 6.485,-3.74 -5.819,2.032 -6.485,3.74 z" /></g><g
           transform="translate(109.46,382.3779)"
           id="g232"><path
             id="path234"
             style="fill:#f5f5f5;fill-opacity:1;fill-rule:nonzero;stroke:none"
             d="m 0,0 -6.485,3.74 5.703,9.877 6.485,-3.74 z" /></g><g
           transform="translate(102.9751,386.1182)"
           id="g236"><path
             id="path238"
             style="fill:#e1e1e1;fill-opacity:1;fill-rule:nonzero;stroke:none"
             d="m 0,0 6.485,-3.74 4.669,-4.024 -6.485,3.741 z" /></g><g
           transform="translate(105.6426,375.3721)"
           id="g240"><path
             id="path242"
             style="fill:#f5f5f5;fill-opacity:1;fill-rule:nonzero;stroke:none"
             d="m 0,0 6.485,-3.74 -7.411,-5.217 -6.485,3.74 z" /></g><g
           transform="translate(98.2314,370.1553)"
           id="g244"><path
             id="path246"
             style="fill:#e1e1e1;fill-opacity:1;fill-rule:nonzero;stroke:none"
             d="m 0,0 6.485,-3.74 v -9.312 L 0,-9.312 Z" /></g><g
           transform="translate(134.6797,409.0005)"
           id="g248"><path
             id="path250"
             style="fill:#f5f5f5;fill-opacity:1;fill-rule:nonzero;stroke:none"
             d="m 0,0 -6.485,3.74 -8.065,-4.656 6.486,-3.74 z" /></g></g></g><g
       id="g252"><g
         clip-path="url(#clipPath258)"
         id="g254"><g
           transform="translate(217.8784,141.9482)"
           id="g260"><path
             id="path262"
             style="fill:#e1e1e1;fill-opacity:1;fill-rule:nonzero;stroke:none"
             d="m 0,0 94.025,54.285 c 0.956,0.553 0.957,1.448 10e-4,2.002 l -8.698,5.032 c -0.956,0.554 -2.507,0.555 -3.464,0.002 L -12.186,7.036 c -0.957,-0.553 -0.957,-1.448 0,-2 L -3.464,0 C -2.507,-0.552 -0.957,-0.552 0,0" /></g><g
           transform="translate(309.3037,405.8037)"
           id="g264"><path
             id="path266"
             style="fill:#375a64;fill-opacity:1;fill-rule:nonzero;stroke:none"
             d="m 0,0 -84.767,-48.94 c -2.391,-1.381 -4.33,-4.739 -4.33,-7.5 v -201.07 c 0,-2.761 1.939,-3.881 4.33,-2.5 l 84.768,48.94 c 2.392,1.381 4.33,4.739 4.33,7.5 L 4.33,-2.5 C 4.33,0.261 2.392,1.381 0,0" /></g><g
           transform="translate(224.5371,356.8638)"
           id="g268"><path
             id="path270"
             style="fill:#2b454e;fill-opacity:1;fill-rule:nonzero;stroke:none"
             d="m 0,0 84.767,48.94 c 2.138,1.234 3.91,0.466 4.262,-1.684 -0.325,2.577 -2.101,5.436 -4.262,6.684 l -3.526,2.036 c -2.391,1.38 -6.269,1.38 -8.661,0 L -12.186,7.036 C -13.382,6.345 -14.464,5.161 -15.248,3.803 L -3.062,-3.232 C -2.278,-1.875 -1.195,-0.69 0,0" /></g><g
           transform="translate(208.0225,155.3301)"
           id="g272"><path
             id="path274"
             style="fill:#1a2e35;fill-opacity:1;fill-rule:nonzero;stroke:none"
             d="m 0,0 c 0,-2.762 1.938,-6.12 4.33,-7.5 l 3.526,-2.036 c 2.162,-1.248 5.529,-1.357 7.924,-0.348 -2.041,-0.774 -3.595,0.376 -3.595,2.848 v 201.07 c 0,1.381 0.484,2.91 1.268,4.268 l -12.186,7.035 c -0.784,-1.357 -1.268,-2.887 -1.268,-4.268 z" /></g><g
           transform="translate(226.8677,330.0664)"
           id="g276"><path
             id="path278"
             style="fill:#ffffff;fill-opacity:1;fill-rule:nonzero;stroke:none"
             d="m 0,0 80.106,46.25 c 1.436,0.828 2.599,0.156 2.599,-1.5 l 0.001,-148.785 c 0,-1.657 -1.164,-3.672 -2.599,-4.5 L 0,-154.785 c -1.434,-0.828 -2.598,-0.156 -2.598,1.5 V -4.5 c 0,1.657 1.163,3.671 2.598,4.5" /></g><g
           transform="translate(266.9209,373.7061)"
           id="g280"><path
             id="path282"
             style="fill:#2b454e;fill-opacity:1;fill-rule:nonzero;stroke:none"
             d="m 0,0 c -0.841,-0.486 -1.523,-1.667 -1.523,-2.638 0,-0.972 0.682,-1.365 1.523,-0.88 0.842,0.486 1.523,1.667 1.523,2.639 C 1.523,0.092 0.842,0.486 0,0" /></g><g
           transform="translate(266.9229,191.2617)"
           id="g284"><path
             id="path286"
             style="fill:#2b454e;fill-opacity:1;fill-rule:nonzero;stroke:none"
             d="m 0,0 c -3.322,-1.918 -6.015,-6.582 -6.015,-10.418 0,-3.835 2.693,-5.39 6.015,-3.472 3.321,1.917 6.014,6.581 6.014,10.417 C 6.014,0.362 3.321,1.917 0,0" /></g><g
           transform="translate(252.5332,358.229)"
           id="g288"><path
             id="path290"
             style="fill:#2b454e;fill-opacity:1;fill-rule:nonzero;stroke:none"
             d="m 0,0 c -1.682,-0.972 -3.046,-3.334 -3.046,-5.277 0,-1.943 1.364,-2.73 3.047,-1.759 1.683,0.972 3.046,3.334 3.046,5.277 C 3.047,0.184 1.683,0.971 0,0" /></g><g
           transform="translate(259.9824,358.8877)"
           id="g292"><path
             id="path294"
             style="fill:#2b454e;fill-opacity:1;fill-rule:nonzero;stroke:none"
             d="m 0,0 c 0,-1.295 0.97,-1.786 2.165,-1.095 l 20.043,11.571 c 1.195,0.691 2.165,2.3 2.165,3.595 -0.001,1.296 -0.97,1.786 -2.166,1.096 L 2.165,3.595 C 0.97,2.905 0,1.295 0,0" /></g><g
           transform="translate(214.7632,323.6279)"
           id="g296"><path
             id="path298"
             style="fill:#2b454e;fill-opacity:1;fill-rule:nonzero;stroke:none"
             d="M 0,0 C 1.346,-0.777 2.437,-2.667 2.437,-4.222 2.437,-5.776 1.346,-6.406 0,-5.628 -1.346,-4.852 -2.438,-2.961 -2.438,-1.407 -2.438,0.147 -1.346,0.777 0,0" /></g><g
           transform="translate(214.7632,304.8516)"
           id="g300"><path
             id="path302"
             style="fill:#2b454e;fill-opacity:1;fill-rule:nonzero;stroke:none"
             d="M 0,0 C 1.346,-0.777 2.437,-2.667 2.437,-4.222 2.437,-5.776 1.346,-6.406 0,-5.629 -1.346,-4.852 -2.438,-2.962 -2.438,-1.407 -2.438,0.147 -1.346,0.777 0,0" /></g><g
           transform="translate(214.0103,323.2515)"
           id="g304"><path
             id="path306"
             style="fill:#375a64;fill-opacity:1;fill-rule:nonzero;stroke:none"
             d="M 0,0 C 1.346,-0.777 2.438,-2.667 2.438,-4.221 2.438,-5.775 1.346,-6.406 0,-5.628 -1.346,-4.851 -2.437,-2.961 -2.437,-1.407 -2.437,0.147 -1.346,0.777 0,0" /></g><g
           transform="translate(214.0103,304.4751)"
           id="g308"><path
             id="path310"
             style="fill:#375a64;fill-opacity:1;fill-rule:nonzero;stroke:none"
             d="M 0,0 C 1.346,-0.777 2.438,-2.667 2.438,-4.222 2.438,-5.776 1.346,-6.406 0,-5.629 -1.346,-4.852 -2.437,-2.961 -2.437,-1.407 -2.437,0.147 -1.346,0.777 0,0" /></g><g
           transform="translate(325.8213,370.1113)"
           id="g312"><path
             id="path314"
             style="fill:#ffffff;fill-opacity:1;fill-rule:nonzero;stroke:none"
             d="m 0,0 c 0,1.657 -1.163,2.328 -2.599,1.5 l -9.588,-5.536 -70.518,-40.714 c -1.435,-0.828 -2.598,-2.843 -2.598,-4.5 l 10e-4,-148.784 c 0,-1.657 1.163,-2.328 2.598,-1.5 l 70.543,40.728 9.563,5.521 c 1.435,0.829 2.599,2.844 2.599,4.5 z" /></g><g
           transform="translate(325.8213,370.1113)"
           id="g316"><path
             id="path318"
             style="fill:none;stroke:#00dfbf;stroke-width:1;stroke-linecap:butt;stroke-linejoin:miter;stroke-miterlimit:10;stroke-dasharray:none;stroke-opacity:1"
             d="m 0,0 c 0,1.657 -1.163,2.328 -2.599,1.5 l -9.588,-5.536 -70.518,-40.714 c -1.435,-0.828 -2.598,-2.843 -2.598,-4.5 l 10e-4,-148.784 c 0,-1.657 1.163,-2.328 2.598,-1.5 l 70.543,40.728 9.563,5.521 c 1.435,0.829 2.599,2.844 2.599,4.5 z" /></g><g
           transform="translate(241.9561,169.7207)"
           id="g320"><path
             id="path322"
             style="fill:#00dfbf;fill-opacity:1;fill-rule:nonzero;stroke:none"
             d="m 0,0 c -0.333,0 -0.646,0.08 -0.926,0.241 -0.652,0.377 -1.011,1.128 -1.011,2.115 v 148.785 c 0,1.844 1.25,4.011 2.848,4.933 l 70.518,40.714 0.5,-0.866 -70.518,-40.714 c -1.273,-0.735 -2.348,-2.597 -2.348,-4.067 V 2.356 c 0,-0.606 0.187,-1.061 0.511,-1.249 0.325,-0.187 0.812,-0.12 1.337,0.182 l 70.543,40.729 0.5,-0.866 L 1.411,0.424 C 0.923,0.142 0.443,0 0,0" /></g><g
           transform="translate(241.9561,169.7207)"
           id="g324"><path
             id="path326"
             style="fill:none;stroke:#00dfbf;stroke-width:1;stroke-linecap:butt;stroke-linejoin:miter;stroke-miterlimit:10;stroke-dasharray:none;stroke-opacity:1"
             d="m 0,0 c -0.333,0 -0.646,0.08 -0.926,0.241 -0.652,0.377 -1.011,1.128 -1.011,2.115 v 148.785 c 0,1.844 1.25,4.011 2.848,4.933 l 70.518,40.714 0.5,-0.866 -70.518,-40.714 c -1.273,-0.735 -2.348,-2.597 -2.348,-4.067 V 2.356 c 0,-0.606 0.187,-1.061 0.511,-1.249 0.325,-0.187 0.812,-0.12 1.337,0.182 l 70.543,40.729 0.5,-0.866 L 1.411,0.424 C 0.923,0.142 0.443,0 0,0 Z" /></g><g
           transform="translate(313.9102,210.873)"
           id="g328"><path
             id="path330"
             style="fill:#00dfbf;fill-opacity:1;fill-rule:nonzero;stroke:none"
             d="m 0,0 -0.5,0.865 9.563,5.521 c 1.274,0.736 2.349,2.598 2.349,4.067 l -0.001,148.785 c 0,0.606 -0.186,1.061 -0.511,1.249 -0.323,0.187 -0.811,0.122 -1.337,-0.182 l -9.588,-5.535 -0.5,0.866 9.588,5.535 c 0.854,0.493 1.684,0.559 2.337,0.182 0.652,-0.376 1.011,-1.127 1.011,-2.115 L 12.412,10.453 c 0,-1.843 -1.251,-4.01 -2.849,-4.932 z" /></g><g
           transform="translate(313.9102,210.873)"
           id="g332"><path
             id="path334"
             style="fill:none;stroke:#00dfbf;stroke-width:1;stroke-linecap:butt;stroke-linejoin:miter;stroke-miterlimit:10;stroke-dasharray:none;stroke-opacity:1"
             d="m 0,0 -0.5,0.865 9.563,5.521 c 1.274,0.736 2.349,2.598 2.349,4.067 l -0.001,148.785 c 0,0.606 -0.186,1.061 -0.511,1.249 -0.323,0.187 -0.811,0.122 -1.337,-0.182 l -9.588,-5.535 -0.5,0.866 9.588,5.535 c 0.854,0.493 1.684,0.559 2.337,0.182 0.652,-0.376 1.011,-1.127 1.011,-2.115 L 12.412,10.453 c 0,-1.843 -1.251,-4.01 -2.849,-4.932 z" /></g><g
           transform="translate(283.1699,335.5356)"
           id="g336"><path
             id="path338"
             style="fill:#00dfbf;fill-opacity:1;fill-rule:nonzero;stroke:none"
             d="m 0,0 c 8.974,5.181 16.248,0.981 16.248,-9.381 0,-10.362 -7.274,-22.961 -16.248,-28.142 -8.974,-5.182 -16.248,-0.981 -16.248,9.38 0,10.362 7.274,22.962 16.248,28.143" /></g><g
           transform="translate(283.1699,327.3809)"
           id="g340"><path
             id="path342"
             style="fill:#00dfbf;fill-opacity:1;fill-rule:nonzero;stroke:none"
             d="m 0,0 c 2.911,1.681 5.271,0.318 5.271,-3.043 0,-3.362 -2.36,-7.45 -5.271,-9.13 -2.911,-1.681 -5.271,-0.319 -5.271,3.043 0,3.362 2.36,7.449 5.271,9.13" /></g><g
           transform="translate(293.4443,309.4561)"
           id="g344"><path
             id="path346"
             style="fill:#00dfbf;fill-opacity:1;fill-rule:nonzero;stroke:none"
             d="m 0,0 c 0,5.523 -3.878,7.762 -8.66,5 l -2.99,-1.726 c -4.783,-2.761 -8.661,-9.477 -8.661,-15 v -1.486 c 2.765,-0.918 6.246,-0.421 10.037,1.768 C -6.376,-9.193 -2.8,-5.54 0,-1.281 Z" /></g><g
           id="g348"><g
             id="g350" /><g
             id="g362"><g
               style="opacity:0.69999701"
               id="g360"
               clip-path="url(#clipPath354)"><g
                 id="g358"
                 transform="translate(283.1699,327.3809)"><path
                   id="path356"
                   style="fill:#ffffff;fill-opacity:1;fill-rule:nonzero;stroke:none"
                   d="m 0,0 c 2.911,1.681 5.271,0.318 5.271,-3.043 0,-3.362 -2.36,-7.45 -5.271,-9.13 -2.911,-1.681 -5.271,-0.319 -5.271,3.043 0,3.362 2.36,7.449 5.271,9.13" /></g></g></g></g><g
           id="g364"><g
             id="g366" /><g
             id="g378"><g
               style="opacity:0.69999701"
               id="g376"
               clip-path="url(#clipPath370)"><g
                 id="g374"
                 transform="translate(293.4443,309.4561)"><path
                   id="path372"
                   style="fill:#ffffff;fill-opacity:1;fill-rule:nonzero;stroke:none"
                   d="m 0,0 c 0,5.523 -3.878,7.762 -8.66,5 l -2.99,-1.726 c -4.783,-2.761 -8.661,-9.477 -8.661,-15 v -1.486 c 2.765,-0.918 6.246,-0.421 10.037,1.768 C -6.376,-9.193 -2.8,-5.54 0,-1.281 Z" /></g></g></g></g><g
           transform="translate(251.7314,275.1611)"
           id="g380"><path
             id="path382"
             style="fill:#00dfbf;fill-opacity:1;fill-rule:nonzero;stroke:none"
             d="m 0,0 20.908,12.071 c 0.957,0.553 1.733,0.105 1.733,-1 v -0.69 c 0,-1.105 -0.776,-2.448 -1.733,-3 L 0,-4.69 c -0.956,-0.553 -1.732,-0.105 -1.732,1 V -3 c 0,1.104 0.776,2.448 1.732,3" /></g><g
           id="g384"><g
             id="g386" /><g
             id="g398"><g
               style="opacity:0.10000598"
               id="g396"
               clip-path="url(#clipPath390)"><g
                 id="g394"
                 transform="translate(251.7314,275.1611)"><path
                   id="path392"
                   style="fill:#000000;fill-opacity:1;fill-rule:nonzero;stroke:none"
                   d="m 0,0 20.908,12.071 c 0.957,0.553 1.733,0.105 1.733,-1 v -0.69 c 0,-1.105 -0.776,-2.448 -1.733,-3 L 0,-4.69 c -0.956,-0.553 -1.732,-0.105 -1.732,1 V -3 c 0,1.104 0.776,2.448 1.732,3" /></g></g></g></g><g
           transform="translate(250.8657,260.5898)"
           id="g400"><path
             id="path402"
             style="fill:#00dfbf;fill-opacity:1;fill-rule:nonzero;stroke:none"
             d="m 0,0 63.26,36.523 c 0.479,0.276 0.866,0.053 0.866,-0.5 v -7.381 c 0,-0.552 -0.387,-1.224 -0.866,-1.5 L 0,-9.381 c -0.478,-0.276 -0.866,-0.053 -0.866,0.5 V -1.5 c 0,0.552 0.388,1.224 0.866,1.5" /></g><g
           id="g404"><g
             id="g406" /><g
             id="g418"><g
               style="opacity:0.19999701"
               id="g416"
               clip-path="url(#clipPath410)"><g
                 id="g414"
                 transform="translate(250.8657,260.5898)"><path
                   id="path412"
                   style="fill:#ffffff;fill-opacity:1;fill-rule:nonzero;stroke:none"
                   d="m 0,0 63.26,36.523 c 0.479,0.276 0.866,0.053 0.866,-0.5 v -7.381 c 0,-0.552 -0.387,-1.224 -0.866,-1.5 L 0,-9.381 c -0.478,-0.276 -0.866,-0.053 -0.866,0.5 V -1.5 c 0,0.552 0.388,1.224 0.866,1.5" /></g></g></g></g><g
           transform="translate(251.7314,242.3281)"
           id="g420"><path
             id="path422"
             style="fill:#00dfbf;fill-opacity:1;fill-rule:nonzero;stroke:none"
             d="m 0,0 20.908,12.071 c 0.957,0.553 1.733,0.105 1.733,-1 v -0.69 c 0,-1.105 -0.776,-2.448 -1.733,-3 L 0,-4.69 c -0.956,-0.553 -1.732,-0.105 -1.732,1 V -3 c 0,1.104 0.776,2.447 1.732,3" /></g><g
           id="g424"><g
             id="g426" /><g
             id="g438"><g
               style="opacity:0.10000598"
               id="g436"
               clip-path="url(#clipPath430)"><g
                 id="g434"
                 transform="translate(251.7314,242.3281)"><path
                   id="path432"
                   style="fill:#000000;fill-opacity:1;fill-rule:nonzero;stroke:none"
                   d="m 0,0 20.908,12.071 c 0.957,0.553 1.733,0.105 1.733,-1 v -0.69 c 0,-1.105 -0.776,-2.448 -1.733,-3 L 0,-4.69 c -0.956,-0.553 -1.732,-0.105 -1.732,1 V -3 c 0,1.104 0.776,2.447 1.732,3" /></g></g></g></g><g
           transform="translate(250.8657,227.7568)"
           id="g440"><path
             id="path442"
             style="fill:#00dfbf;fill-opacity:1;fill-rule:nonzero;stroke:none"
             d="m 0,0 63.26,36.523 c 0.479,0.276 0.866,0.053 0.866,-0.5 v -7.38 c 0,-0.553 -0.387,-1.225 -0.866,-1.5 L 0,-9.381 c -0.478,-0.276 -0.866,-0.053 -0.866,0.5 V -1.5 c 0,0.552 0.388,1.224 0.866,1.5" /></g><g
           id="g444"><g
             id="g446" /><g
             id="g458"><g
               style="opacity:0.19999701"
               id="g456"
               clip-path="url(#clipPath450)"><g
                 id="g454"
                 transform="translate(250.8657,227.7568)"><path
                   id="path452"
                   style="fill:#ffffff;fill-opacity:1;fill-rule:nonzero;stroke:none"
                   d="m 0,0 63.26,36.523 c 0.479,0.276 0.866,0.053 0.866,-0.5 v -7.38 c 0,-0.553 -0.387,-1.225 -0.866,-1.5 L 0,-9.381 c -0.478,-0.276 -0.866,-0.053 -0.866,0.5 V -1.5 c 0,0.552 0.388,1.224 0.866,1.5" /></g></g></g></g><g
           transform="translate(276.1045,223.5664)"
           id="g460"><path
             id="path462"
             style="fill:#00dfbf;fill-opacity:1;fill-rule:nonzero;stroke:none"
             d="m 0,0 24.97,14.416 c 0.957,0.553 1.732,0.105 1.732,-1 V 5.69 c 0,-1.104 -0.775,-2.448 -1.732,-3 L 0,-11.727 c -0.957,-0.551 -1.732,-0.104 -1.732,1 V -3 c 0,1.104 0.775,2.447 1.732,3" /></g><g
           id="g464"><g
             id="g466" /><g
             id="g478"><g
               style="opacity:0.10000598"
               id="g476"
               clip-path="url(#clipPath470)"><g
                 id="g474"
                 transform="translate(276.1045,223.5664)"><path
                   id="path472"
                   style="fill:#000000;fill-opacity:1;fill-rule:nonzero;stroke:none"
                   d="m 0,0 24.97,14.416 c 0.957,0.553 1.732,0.105 1.732,-1 V 5.69 c 0,-1.104 -0.775,-2.448 -1.732,-3 L 0,-11.727 c -0.957,-0.551 -1.732,-0.104 -1.732,1 V -3 c 0,1.104 0.775,2.447 1.732,3" /></g></g></g></g></g></g><g
       id="g480"><g
         clip-path="url(#clipPath486)"
         id="g482"><g
           transform="translate(335.3027,256.1455)"
           id="g488"><path
             id="path490"
             style="fill:#ffaaa8;fill-opacity:1;fill-rule:nonzero;stroke:none"
             d="m 0,0 c 0,0 -12.285,16.947 -13.034,18.963 -0.566,1.52 0.039,3.782 0.179,4.832 0.14,1.051 0.343,3.39 0.518,4.041 0.306,1.136 -1.167,0.904 -1.993,-0.129 -0.846,-1.059 -1.117,-3.124 -1.538,-3.464 -0.42,-0.339 -3.703,4.429 -5.416,6.636 -1.712,2.208 -2.783,3.537 -3.824,2.719 -0.75,-0.589 -0.192,-1.875 1.049,-3.754 1.242,-1.879 1.792,-2.75 1.979,-3.154 0.187,-0.403 -0.834,-0.436 -1.385,-1.284 -0.43,-0.662 -0.029,-1.733 -0.598,-2.244 -0.571,-0.511 -1.102,-1.43 -0.477,-2.466 0.796,-1.319 2.393,-3.204 4.229,-4.477 1.837,-1.273 2.582,-1.72 3.665,-3.452 1.083,-1.731 10.872,-19.403 11.529,-20.463 0.656,-1.061 1.932,-3.221 3.863,-3.283 1.932,-0.062 17.728,13.54 18.542,14.219 2.604,2.171 3.425,2.489 3.874,0.533 0.141,-0.611 0.233,-1.309 0.331,-2.098 0.313,-2.476 1.999,-11.337 1.999,-11.337 0,0 7.99,-3.872 14.569,-1.964 6.579,1.908 8.785,4.657 8.785,4.657 l -3.291,5.363 c 0.896,2.215 5.034,11.169 6.333,17.443 l -20.6,3.326 c -0.423,0.092 -1.098,0.262 -1.96,0.489 -1.131,0.298 -3.974,1.296 -6.167,-0.61 C 14.072,12.876 0,0 0,0" /></g><g
           transform="translate(376.1436,152.208)"
           id="g492"><path
             id="path494"
             style="fill:#2b454e;fill-opacity:1;fill-rule:nonzero;stroke:none"
             d="m 0,0 -3.693,-5.132 c 0,0 1.711,-1.003 5.364,-1.141 3.305,-0.126 4.213,0.959 4.335,1.219 0.557,1.197 -0.313,3.356 -0.552,5.211 z" /></g><g
           transform="translate(372.6582,149.54)"
           id="g496"><path
             id="path498"
             style="fill:#2b454e;fill-opacity:1;fill-rule:nonzero;stroke:none"
             d="m 0,0 c 0,0 -4.475,0.285 -7.569,0.675 -3.095,0.39 -5.543,-1.12 -4.815,-2.395 0.728,-1.273 2.43,-2.333 5.081,-3.224 2.273,-0.765 4.995,-1.321 7.367,-2.031 2.431,-0.727 3.988,-1.56 5.365,-1.087 1.535,0.53 2.194,1.143 2.063,2.261 -0.13,1.118 -1.243,4.718 -1.243,4.718 z" /></g><g
           transform="translate(382.1494,157.3643)"
           id="g500"><path
             id="path502"
             style="fill:#ff9090;fill-opacity:1;fill-rule:nonzero;stroke:none"
             d="m 0,0 c 0,0 -0.56,-4.661 -0.603,-5.662 -0.043,-1 -4.548,-1.321 -5.403,0.506 l -0.14,5.699 z" /></g><g
           transform="translate(377.6055,154.4961)"
           id="g504"><path
             id="path506"
             style="fill:#ffaaa8;fill-opacity:1;fill-rule:nonzero;stroke:none"
             d="m 0,0 1.612,-7.071 c 0,0 0.153,-0.863 -3.532,-1.411 -3.684,-0.55 -9.459,1.926 -10.442,2.429 -0.984,0.504 -1.101,1.505 2.516,1.305 3.617,-0.201 4.899,-0.208 4.899,-0.208 l -1.174,3.135 z" /></g><g
           transform="translate(385.1904,271.9829)"
           id="g508"><path
             id="path510"
             style="fill:#ff9090;fill-opacity:1;fill-rule:nonzero;stroke:none"
             d="m 0,0 2.546,0.703 c 0,0 5.335,-16.867 5.925,-18.491 0.59,-1.625 1.255,-3.357 0.107,-5.367 C 7.211,-25.547 0,-35.178 0,-35.178 l -4.577,4.479 5.192,9.514 -4.593,9.306 z" /></g><g
           transform="translate(358.9727,293.9072)"
           id="g512"><path
             id="path514"
             style="fill:#2b454e;fill-opacity:1;fill-rule:nonzero;stroke:none"
             d="m 0,0 c 0,0 -2.042,3.268 0.108,7.27 2.535,4.714 8.201,7.015 14.944,6.133 3.115,-0.408 6.792,-2.965 8.808,-6.87 2.216,-4.288 2.423,-12.931 2.973,-16.2 z" /></g><g
           transform="translate(358.8193,292.0615)"
           id="g516"><path
             id="path518"
             style="fill:#ffaaa8;fill-opacity:1;fill-rule:nonzero;stroke:none"
             d="M 0,0 C 0,0 -1.602,-3.05 -1.324,-3.328 -1.047,-3.605 0.021,-3.83 0.021,-3.83 Z" /></g><g
           transform="translate(363.6807,301.7046)"
           id="g520"><path
             id="path522"
             style="fill:#ffaaa8;fill-opacity:1;fill-rule:nonzero;stroke:none"
             d="m 0,0 c -1.742,-1.136 -4.741,-3.212 -4.873,-10.066 -0.135,-7.037 0.859,-9.305 1.899,-10.12 0.703,-0.55 4.809,-0.272 6.573,0.143 1.763,0.414 6.835,2.919 8.66,6.729 2.146,4.481 1.712,11.043 -1.483,12.948 C 6.281,2.315 1.475,0.961 0,0" /></g><g
           transform="translate(382.1484,249.1763)"
           id="g524"><path
             id="path526"
             style="fill:#00dfbf;fill-opacity:1;fill-rule:nonzero;stroke:none"
             d="m 0,0 c 3.084,-4.799 6.016,-9.026 6.641,-14.419 1.32,-11.39 -3.013,-24.412 -3.932,-32.833 0,0 2.91,-3.784 2.907,-8.229 -0.002,-3.48 -5.615,-36.331 -5.615,-36.331 0,0 -4.083,-1.244 -6.146,0.543 l -3.858,60.434 2.032,7.357 z" /></g><g
           id="g528"><g
             id="g530" /><g
             id="g542"><g
               style="opacity:0.19999701"
               id="g540"
               clip-path="url(#clipPath534)"><g
                 id="g538"
                 transform="translate(382.1484,249.1763)"><path
                   id="path536"
                   style="fill:#000000;fill-opacity:1;fill-rule:nonzero;stroke:none"
                   d="m 0,0 c 3.084,-4.799 6.016,-9.026 6.641,-14.419 1.32,-11.39 -3.013,-24.412 -3.932,-32.833 0,0 2.91,-3.784 2.907,-8.229 -0.002,-3.48 -5.615,-36.331 -5.615,-36.331 0,0 -4.083,-1.244 -6.146,0.543 l -3.858,60.434 2.032,7.357 z" /></g></g></g></g><g
           transform="translate(372.1455,218.3408)"
           id="g544"><path
             id="path546"
             style="fill:#00dfbf;fill-opacity:1;fill-rule:nonzero;stroke:none"
             d="m 0,0 2.032,7.357 c 0,0 5.634,1.362 11.013,4.369 0,0 -2.085,-3.787 -8.056,-5.863 L 1.879,-3.595 1.611,-25.238 Z" /></g><g
           id="g548"><g
             id="g550" /><g
             id="g562"><g
               style="opacity:0.30000299"
               id="g560"
               clip-path="url(#clipPath554)"><g
                 id="g558"
                 transform="translate(372.1455,218.3408)"><path
                   id="path556"
                   style="fill:#000000;fill-opacity:1;fill-rule:nonzero;stroke:none"
                   d="m 0,0 2.032,7.357 c 0,0 5.634,1.362 11.013,4.369 0,0 -2.085,-3.787 -8.056,-5.863 L 1.879,-3.595 1.611,-25.238 Z" /></g></g></g></g><g
           transform="translate(382.1484,249.1763)"
           id="g564"><path
             id="path566"
             style="fill:#00dfbf;fill-opacity:1;fill-rule:nonzero;stroke:none"
             d="M 0,0 C 1.65,-2.693 5.594,-7.298 4.756,-11.723 3.739,-17.085 0.854,-20.854 -7.971,-23.478 l -8.277,-29.976 c 0,0 4.31,-4.033 5.628,-7.87 1.316,-3.836 6.077,-33.356 6.077,-33.356 0,0 -1.472,-2.403 -6.121,-1.821 0,0 -16.21,37.024 -17.356,39.408 -1.144,2.384 -1.886,4.166 -1.372,8.049 0.516,3.881 6.038,46.351 6.038,46.351 z" /></g><g
           id="g568"><g
             id="g570" /><g
             id="g582"><g
               style="opacity:0.19999701"
               id="g580"
               clip-path="url(#clipPath574)"><g
                 id="g578"
                 transform="translate(382.1484,249.1763)"><path
                   id="path576"
                   style="fill:#000000;fill-opacity:1;fill-rule:nonzero;stroke:none"
                   d="M 0,0 C 1.65,-2.693 5.594,-7.298 4.756,-11.723 3.739,-17.085 0.854,-20.854 -7.971,-23.478 l -8.277,-29.976 c 0,0 4.31,-4.033 5.628,-7.87 1.316,-3.836 6.077,-33.356 6.077,-33.356 0,0 -1.472,-2.403 -6.121,-1.821 0,0 -16.21,37.024 -17.356,39.408 -1.144,2.384 -1.886,4.166 -1.372,8.049 0.516,3.881 6.038,46.351 6.038,46.351 z" /></g></g></g></g><g
           transform="translate(385.1904,271.9829)"
           id="g584"><path
             id="path586"
             style="fill:#00dfbf;fill-opacity:1;fill-rule:nonzero;stroke:none"
             d="m 0,0 -20.6,3.326 c -0.421,0.092 -1.102,0.263 -1.962,0.489 l -0.002,10e-4 c 0,0 -0.878,-12.916 -6.162,-15.88 h -0.001 c 0.125,-0.616 0.234,-1.309 0.332,-2.098 0.313,-2.476 1.999,-11.338 1.999,-11.338 0,0 7.991,-3.872 14.569,-1.963 6.579,1.908 8.785,4.656 8.785,4.656 l -3.291,5.364 C -5.437,-15.229 -1.299,-6.275 0,0" /></g><g
           id="g588"><g
             id="g590" /><g
             id="g602"><g
               style="opacity:0.69999701"
               id="g600"
               clip-path="url(#clipPath594)"><g
                 id="g598"
                 transform="translate(385.1904,271.9829)"><path
                   id="path596"
                   style="fill:#ffffff;fill-opacity:1;fill-rule:nonzero;stroke:none"
                   d="m 0,0 -20.6,3.326 c -0.421,0.092 -1.102,0.263 -1.962,0.489 l -0.002,10e-4 c 0,0 -0.878,-12.916 -6.162,-15.88 h -0.001 c 0.125,-0.616 0.234,-1.309 0.332,-2.098 0.313,-2.476 1.999,-11.338 1.999,-11.338 0,0 7.991,-3.872 14.569,-1.963 6.579,1.908 8.785,4.656 8.785,4.656 l -3.291,5.364 C -5.437,-15.229 -1.299,-6.275 0,0" /></g></g></g></g><g
           transform="translate(379.7559,256.6489)"
           id="g604"><path
             id="path606"
             style="fill:#00dfbf;fill-opacity:1;fill-rule:nonzero;stroke:none"
             d="m 0,0 c -0.084,-0.194 -6.622,-3.697 -8.564,-4.233 3.062,0.151 5.607,0.871 7.666,2.124 z" /></g><g
           transform="translate(363.167,301.3594)"
           id="g608"><path
             id="path610"
             style="fill:#2b454e;fill-opacity:1;fill-rule:nonzero;stroke:none"
             d="m 0,0 c 0,0 -0.96,-6.503 1.365,-10.317 0,0 0.873,2.588 3.072,2.094 2.214,-0.498 2.307,-3.373 0.77,-5.003 -1.538,-1.63 -3.249,-1.041 -3.249,-1.041 0,0 -0.346,-4.7 -0.531,-8.641 -0.179,-3.797 -1.239,-12.528 3.196,-16.039 4.435,-3.511 15.549,-4.696 20.758,2.586 2.898,4.051 -0.952,11.213 -2.742,19.242 C 20.992,-9.736 20.065,1.206 12.231,2.961 4.398,4.716 0,0 0,0" /></g></g></g><g
       id="g612"><g
         clip-path="url(#clipPath618)"
         id="g614"><g
           transform="translate(391.9033,390.1748)"
           id="g620"><path
             id="path622"
             style="fill:#ececec;fill-opacity:1;fill-rule:nonzero;stroke:none"
             d="m 0,0 -1.651,-0.954 c 0.131,0.608 0.225,1.212 0.225,1.792 0,3.346 -2.348,4.702 -5.246,3.029 -0.843,-0.487 -1.627,-1.19 -2.333,-2.005 0,0.008 0.001,0.016 0.001,0.025 0,4.503 -3.161,6.329 -7.061,4.077 -3.901,-2.252 -7.063,-7.728 -7.063,-12.232 0,-0.23 0.014,-0.447 0.03,-0.662 -0.825,0.147 -1.809,-0.055 -2.869,-0.667 -2.897,-1.673 -5.246,-5.74 -5.246,-9.086 0,-0.461 0.049,-0.879 0.133,-1.261 l -0.88,-0.508 c -2.392,-1.381 -4.33,-4.075 -4.33,-6.018 0,-1.943 1.938,-2.398 4.33,-1.018 L 0,-7.036 C 2.392,-5.655 4.33,-2.96 4.33,-1.018 4.33,0.925 2.392,1.381 0,0" /></g></g></g></g></svg>