<?xml version="1.0" standalone="no"?>
<!DOCTYPE svg PUBLIC "-//W3C//DTD SVG 20010904//EN"
 "http://www.w3.org/TR/2001/REC-SVG-20010904/DTD/svg10.dtd">
<svg version="1.0" xmlns="http://www.w3.org/2000/svg"
 width="198.000000pt" height="198.000000pt" viewBox="0 0 198.000000 198.000000"
 preserveAspectRatio="xMidYMid meet">
<metadata>
Created by potrace 1.14, written by Peter Selinger 2001-2017
</metadata>
<g transform="translate(0.000000,198.000000) scale(0.100000,-0.100000)"
fill="#000000" stroke="none">
<path d="M692 1438 l-210 -212 2 -88 1 -89 210 -209 210 -210 90 0 90 0 83 88
c46 48 139 143 205 210 l122 124 2 86 1 87 -211 213 -212 212 -87 0 -87 0
-209 -212z m327 166 c-61 -65 -162 -169 -268 -278 l-103 -106 166 -166 166
-165 -35 -37 -34 -37 -195 195 c-107 107 -197 200 -200 207 -3 7 84 102 192
212 l197 200 70 4 c39 2 72 4 74 5 3 1 -11 -14 -30 -34z m261 -184 l200 -199
0 -66 c0 -36 -2 -65 -5 -65 -3 0 -95 90 -205 199 l-199 200 -84 -87 c-47 -48
-120 -124 -163 -170 l-79 -83 -35 36 -34 35 51 53 c28 28 115 118 193 200 79
81 147 147 152 147 4 0 98 -90 208 -200z m-5 -160 c109 -109 197 -201 195
-204 -3 -2 -92 -95 -199 -205 l-195 -201 -74 0 -75 0 202 198 c110 108 201
202 201 207 0 6 -72 82 -160 170 -88 88 -160 163 -160 167 0 8 52 66 60 67 3
1 95 -89 205 -199z m-57 -121 c-5 -13 -218 -229 -226 -229 -4 0 -59 51 -121
114 l-114 114 118 121 117 120 114 -116 c63 -64 113 -120 112 -124z m-257
-298 c154 162 270 279 277 279 5 0 22 -15 40 -33 l32 -33 -198 -197 c-110
-108 -202 -197 -206 -197 -3 0 -96 90 -206 200 l-200 200 0 72 0 71 205 -208
205 -207 51 53z"/>
<path d="M813 592 c-12 -9 -123 -235 -123 -251 0 -21 24 -6 40 25 8 16 18 31
22 34 7 5 53 5 95 1 7 0 15 -17 19 -36 7 -37 13 -42 32 -23 7 7 8 17 3 27 -5
9 -12 33 -15 54 -3 21 -11 48 -18 60 -6 12 -10 23 -9 25 2 1 0 20 -4 41 -6 39
-23 55 -42 43z m32 -139 c5 -21 2 -23 -35 -23 -22 0 -40 5 -40 10 0 6 12 34
27 63 l27 52 8 -40 c4 -22 10 -50 13 -62z"/>
<path d="M1015 588 c-31 -18 -44 -40 -45 -75 0 -28 6 -35 50 -59 53 -29 62
-50 32 -77 -22 -20 -42 -21 -77 -5 -34 15 -45 1 -16 -23 59 -48 148 1 139 76
-2 22 -14 35 -48 55 -50 29 -59 49 -34 75 16 16 38 16 77 0 12 -5 17 -3 17 8
0 9 -4 18 -8 21 -20 12 -69 14 -87 4z"/>
<path d="M1209 592 c-25 -3 -26 -6 -38 -110 -18 -148 -18 -145 2 -148 13 -2
17 5 19 29 0 18 2 37 3 42 2 6 3 16 4 23 0 6 9 12 19 12 11 0 28 -20 47 -54
20 -37 35 -54 47 -53 10 1 18 2 18 3 0 0 -13 24 -28 53 l-29 52 32 32 c27 27
31 38 27 65 -6 46 -45 63 -123 54z m75 -38 c36 -35 7 -84 -48 -84 l-33 0 7 40
c4 22 5 40 3 40 -2 0 -1 5 2 10 9 15 52 12 69 -6z"/>
</g>
</svg>
